<svg width="40" height="31" viewBox="0 0 40 31" fill="none" xmlns="http://www.w3.org/2000/svg">
<g id="btneng">
<path id="bgright" d="M25 30.9756L21 30.9788L0 30.9816V0.00862503L21 0.00852776L25 0.00861168C25 0.00861168 40 -0.889012 40 15.4825C40 31.8541 25 30.9756 25 30.9756Z" fill="#B64100"/>
<path id="texteng" d="M13.408 17.08C13.216 17.6667 12.8533 18.1733 12.32 18.6C11.7973 19.016 11.1627 19.224 10.416 19.224C9.65867 19.224 9.00267 19.0533 8.448 18.712C7.89333 18.36 7.46667 17.8747 7.168 17.256C6.88 16.6267 6.736 15.9013 6.736 15.08C6.736 14.152 6.88533 13.3467 7.184 12.664C7.48267 11.9813 7.904 11.4587 8.448 11.096C8.992 10.7227 9.62667 10.536 10.352 10.536C11.312 10.536 12.048 10.8293 12.56 11.416C13.0827 11.992 13.344 12.872 13.344 14.056H8.336C8.304 14.3547 8.288 14.696 8.288 15.08C8.288 15.784 8.4 16.3973 8.624 16.92C8.85867 17.4427 9.16267 17.848 9.536 18.136C9.92 18.4133 10.32 18.552 10.736 18.552C11.248 18.552 11.7013 18.4293 12.096 18.184C12.4907 17.9387 12.8213 17.528 13.088 16.952L13.408 17.08ZM10.288 10.84C9.78667 10.84 9.35467 11.0853 8.992 11.576C8.62933 12.0667 8.40533 12.792 8.32 13.752H11.808C11.8293 12.92 11.7067 12.2267 11.44 11.672C11.184 11.1173 10.8 10.84 10.288 10.84ZM19.9338 10.536C20.6804 10.536 21.2458 10.7387 21.6298 11.144C21.8324 11.3573 21.9764 11.624 22.0618 11.944C22.1471 12.264 22.1898 12.696 22.1898 13.24V17.512C22.1898 17.9493 22.2804 18.2533 22.4618 18.424C22.6431 18.584 22.9578 18.664 23.4058 18.664V19C22.4244 18.9573 21.7844 18.936 21.4858 18.936C21.1871 18.936 20.5898 18.9573 19.6938 19V18.664C20.0884 18.664 20.3604 18.584 20.5098 18.424C20.6698 18.2533 20.7498 17.9493 20.7498 17.512V12.888C20.7498 12.2907 20.6644 11.8373 20.4938 11.528C20.3231 11.208 19.9764 11.048 19.4538 11.048C19.0164 11.048 18.6271 11.176 18.2858 11.432C17.9444 11.688 17.6778 12.04 17.4858 12.488C17.3044 12.9253 17.2138 13.416 17.2138 13.96V17.512C17.2138 17.9493 17.2884 18.2533 17.4378 18.424C17.5978 18.584 17.8751 18.664 18.2698 18.664V19C17.3738 18.9573 16.7764 18.936 16.4778 18.936C16.1791 18.936 15.5391 18.9573 14.5578 19V18.664C15.0058 18.664 15.3204 18.584 15.5018 18.424C15.6831 18.2533 15.7738 17.9493 15.7738 17.512V12.504C15.7738 12.0133 15.6831 11.656 15.5018 11.432C15.3204 11.208 15.0058 11.096 14.5578 11.096V10.76C14.8991 10.792 15.2298 10.808 15.5498 10.808C16.2218 10.808 16.7764 10.7333 17.2138 10.584V12.472C17.4804 11.7893 17.8484 11.2987 18.3177 11C18.7978 10.6907 19.3364 10.536 19.9338 10.536ZM31.0204 12.2C30.8284 12.2 30.663 12.136 30.5244 12.008C30.3964 11.88 30.3324 11.6933 30.3324 11.448C30.3324 11.2347 30.3857 10.9893 30.4924 10.712C30.215 10.8293 29.9964 10.9627 29.8364 11.112C29.6764 11.2507 29.5324 11.4267 29.4044 11.64C29.6497 12.0133 29.7724 12.488 29.7724 13.064C29.7724 13.9067 29.5164 14.5413 29.0044 14.968C28.4924 15.384 27.815 15.592 26.9724 15.592H26.9564C26.6044 15.7947 26.3377 15.9813 26.1564 16.152C25.975 16.3227 25.8844 16.5147 25.8844 16.728C25.8844 17.0693 26.1404 17.24 26.6524 17.24H28.6524C29.3777 17.24 29.975 17.4 30.4444 17.72C30.9244 18.0293 31.1644 18.4987 31.1644 19.128C31.1644 19.64 30.999 20.1147 30.6684 20.552C30.3377 20.9893 29.8524 21.3413 29.2124 21.608C28.5724 21.8747 27.799 22.008 26.8924 22.008C25.9644 22.008 25.1857 21.864 24.5564 21.576C23.9377 21.2987 23.6284 20.8827 23.6284 20.328C23.6284 19.9653 23.7724 19.6507 24.0604 19.384C24.359 19.1173 24.7697 18.9093 25.2924 18.76L25.3884 19.016C25.1537 19.0907 24.967 19.24 24.8284 19.464C24.6897 19.688 24.6204 19.9387 24.6204 20.216C24.6204 20.7067 24.839 21.08 25.2764 21.336C25.7244 21.6027 26.3217 21.736 27.0684 21.736C27.8897 21.736 28.5937 21.576 29.1804 21.256C29.767 20.9467 30.0604 20.4613 30.0604 19.8C30.0604 19.416 29.9217 19.1173 29.6444 18.904C29.3777 18.6907 28.8977 18.584 28.2044 18.584H27.0204C26.391 18.584 25.8844 18.504 25.5004 18.344C25.127 18.184 24.9404 17.864 24.9404 17.384C24.9404 17.0533 25.0577 16.7387 25.2924 16.44C25.5377 16.1413 25.9377 15.848 26.4924 15.56C25.7884 15.4853 25.223 15.24 24.7964 14.824C24.3804 14.408 24.1724 13.8213 24.1724 13.064C24.1724 12.2213 24.4284 11.592 24.9404 11.176C25.4524 10.7493 26.1297 10.536 26.9724 10.536C27.975 10.536 28.7164 10.8133 29.1964 11.368C29.399 11.08 29.655 10.8453 29.9644 10.664C30.2737 10.472 30.583 10.376 30.8924 10.376C31.1697 10.376 31.3937 10.456 31.5644 10.616C31.735 10.776 31.8204 11.0053 31.8204 11.304C31.8204 11.6027 31.735 11.8267 31.5644 11.976C31.4044 12.1253 31.223 12.2 31.0204 12.2ZM26.9724 15.304C27.399 15.304 27.719 15.1387 27.9324 14.808C28.1564 14.4667 28.2684 13.8853 28.2684 13.064C28.2684 12.2427 28.1564 11.6667 27.9324 11.336C27.719 10.9947 27.399 10.824 26.9724 10.824C26.5457 10.824 26.2204 10.9947 25.9964 11.336C25.783 11.6667 25.6764 12.2427 25.6764 13.064C25.6764 13.8853 25.783 14.4667 25.9964 14.808C26.2204 15.1387 26.5457 15.304 26.9724 15.304Z" fill="white"/>
</g>
</svg>
