<svg width="40" height="31" viewBox="0 0 40 31" fill="none" xmlns="http://www.w3.org/2000/svg">
<g id="btnswe">
<g id="swebg">
<path id="bgleft" d="M15 0.00825131L19 0.00507424L40 0.00227985V30.9753L19 30.9754L15 30.9753C15 30.9753 0 31.8729 0 15.5013C0 -0.870223 15 0.00825131 15 0.00825131Z" fill="#B64100"/>
</g>
<g id="textswe">
<path id="swe" d="M11.328 11.536C11.712 11.536 12.0533 11.5947 12.352 11.712C12.6507 11.8293 12.8907 11.968 13.072 12.128C13.1893 12.2133 13.2853 12.256 13.36 12.256C13.552 12.256 13.6693 12.0213 13.712 11.552H14.08C14.0373 12.0747 14.016 12.9813 14.016 14.272H13.648C13.5307 13.568 13.3013 12.9867 12.96 12.528C12.6293 12.0693 12.1333 11.84 11.472 11.84C11.088 11.84 10.7733 11.952 10.528 12.176C10.2827 12.3893 10.16 12.688 10.16 13.072C10.16 13.4453 10.288 13.76 10.544 14.016C10.8 14.2613 11.2107 14.56 11.776 14.912C11.872 14.9653 12.016 15.056 12.208 15.184C12.6987 15.504 13.0933 15.7867 13.392 16.032C13.6907 16.2773 13.9307 16.56 14.112 16.88C14.304 17.2 14.4 17.568 14.4 17.984C14.4 18.688 14.1333 19.2373 13.6 19.632C13.0773 20.0267 12.432 20.224 11.664 20.224C11.184 20.224 10.7627 20.1493 10.4 20C10.1653 19.8827 9.94667 19.7387 9.744 19.568C9.70133 19.5253 9.65333 19.504 9.6 19.504C9.52533 19.504 9.456 19.5573 9.392 19.664C9.33867 19.7707 9.296 19.92 9.264 20.112H8.896C8.93867 19.504 8.96 18.4373 8.96 16.912H9.328C9.44533 17.9147 9.65867 18.6667 9.968 19.168C10.2773 19.6587 10.8053 19.904 11.552 19.904C11.9253 19.904 12.256 19.7813 12.544 19.536C12.832 19.2907 12.976 18.9067 12.976 18.384C12.976 17.968 12.832 17.616 12.544 17.328C12.2667 17.04 11.808 16.6933 11.168 16.288C10.6453 15.9573 10.24 15.6853 9.952 15.472C9.67467 15.2587 9.44 14.9973 9.248 14.688C9.056 14.3787 8.96 14.016 8.96 13.6C8.96 12.928 9.184 12.416 9.632 12.064C10.08 11.712 10.6453 11.536 11.328 11.536ZM26.2123 11.808C26.6816 11.808 27.0869 11.792 27.4283 11.76V12.08C27.2043 12.112 27.0069 12.2133 26.8363 12.384C26.6656 12.544 26.5163 12.816 26.3883 13.2L24.0683 20.08H23.7963L21.2683 13.648L18.9803 20.08H18.7083L16.0843 12.992C15.9349 12.6187 15.7803 12.3787 15.6203 12.272C15.4709 12.1547 15.3163 12.096 15.1562 12.096V11.76C15.5723 11.824 16.0416 11.856 16.5643 11.856C17.0976 11.856 17.7909 11.824 18.6443 11.76V12.096C18.2496 12.096 17.9616 12.128 17.7803 12.192C17.6096 12.256 17.5243 12.4213 17.5243 12.688C17.5243 12.88 17.5776 13.1307 17.6843 13.44L19.2843 18.048L21.5883 11.696H21.9563L24.4043 18.16L25.9083 13.584C26.0043 13.296 26.0523 13.056 26.0523 12.864C26.0523 12.608 25.9616 12.4213 25.7803 12.304C25.5989 12.1867 25.2949 12.112 24.8683 12.08V11.76C25.4336 11.792 25.8816 11.808 26.2123 11.808ZM34.7361 18.08C34.5441 18.6667 34.1815 19.1733 33.6481 19.6C33.1255 20.016 32.4908 20.224 31.7441 20.224C30.9868 20.224 30.3308 20.0533 29.7761 19.712C29.2215 19.36 28.7948 18.8747 28.4961 18.256C28.2081 17.6267 28.0641 16.9013 28.0641 16.08C28.0641 15.152 28.2135 14.3467 28.5121 13.664C28.8108 12.9813 29.2321 12.4587 29.7761 12.096C30.3201 11.7227 30.9548 11.536 31.6801 11.536C32.6401 11.536 33.3761 11.8293 33.8881 12.416C34.4108 12.992 34.6721 13.872 34.6721 15.056H29.6641C29.6321 15.3547 29.6161 15.696 29.6161 16.08C29.6161 16.784 29.7281 17.3973 29.9521 17.92C30.1868 18.4427 30.4908 18.848 30.8641 19.136C31.2481 19.4133 31.6481 19.552 32.0641 19.552C32.5761 19.552 33.0295 19.4293 33.4241 19.184C33.8188 18.9387 34.1495 18.528 34.4161 17.952L34.7361 18.08ZM31.6161 11.84C31.1148 11.84 30.6828 12.0853 30.3201 12.576C29.9575 13.0667 29.7335 13.792 29.6481 14.752H33.1361C33.1575 13.92 33.0348 13.2267 32.7681 12.672C32.5121 12.1173 32.1281 11.84 31.6161 11.84Z" fill="white"/>
</g>
</g>
</svg>
